<svg xmlns="http://www.w3.org/2000/svg" viewBox="0 0 512 512" role="img" aria-labelledby="title desc">
  <title id="title">py-hdWGCNA sticker</title>
  <desc id="desc">OmicVerse repository hex sticker for py-hdWGCNA.</desc>
  <defs>
    <linearGradient id="bg" x1="112" y1="90" x2="398" y2="430" gradientUnits="userSpaceOnUse">
      <stop offset="0" stop-color="#050706"/>
      <stop offset=".58" stop-color="#020403"/>
      <stop offset="1" stop-color="#000000"/>
    </linearGradient>
  </defs>
  <polygon points="256,34 450,146 450,368 256,480 62,368 62,146" fill="#000000" opacity=".34"/>
  <polygon points="256,22 458,139 458,373 256,490 54,373 54,139" fill="url(#bg)" stroke="#0B0F0A" stroke-width="19" stroke-linejoin="round"/>
  <polygon points="256,22 458,139 458,373 256,490 54,373 54,139" fill="none" stroke="#E8FFE0" stroke-width="12" stroke-linejoin="round"/>
  <g opacity=".22" stroke="#3FD36B" stroke-width="2.2">
    <path d="M112 166h288M100 222h312M100 278h312M112 334h288"/>
    <path d="M152 126v236M204 104v274M256 96v286M308 104v274M360 126v236"/>
  </g>
  
  <g id="motif">
    <path d="M138 169v50h54M192 169v50M246 169v91h-54M246 260h72M318 169v91M372 169v91h-54" fill="none" stroke="#FFFFFF" stroke-width="7" stroke-linecap="round"/>
    <circle cx="170" cy="316" r="26" fill="#30D158" stroke="#FFFFFF" stroke-width="5"/>
    <circle cx="256" cy="316" r="26" fill="#00C7BE" stroke="#FFFFFF" stroke-width="5"/>
    <circle cx="342" cy="316" r="26" fill="#FFD60A" stroke="#FFFFFF" stroke-width="5"/>
    <path d="M196 316h34M282 316h34" stroke="#FFFFFF" stroke-width="7"/>
  </g>
  <path id="label" d="M306.08,387.04 L308.99,392.09 L305.92,393.86 L298.26,380.59 L301.33,378.82 L302.14,380.23 Q302.29,379.02 302.84,378.18 Q303.38,377.33 304.38,376.75 Q306.16,375.72 308.12,376.48 Q310.07,377.23 311.36,379.45 Q312.64,381.67 312.31,383.75 Q311.99,385.82 310.21,386.84 Q309.21,387.42 308.20,387.47 Q307.20,387.52 306.08,387.04 Z M304.53,379.64 Q303.54,380.21 303.43,381.24 Q303.32,382.27 304.11,383.64 Q304.90,385.00 305.84,385.42 Q306.79,385.84 307.78,385.27 Q308.77,384.70 308.87,383.68 Q308.97,382.66 308.18,381.29 Q307.39,379.91 306.45,379.49 Q305.51,379.07 304.53,379.64 Z M309.58,374.06 L312.65,372.28 L319.00,377.32 L317.43,369.52 L320.51,367.75 L322.54,380.61 Q322.86,382.56 322.41,383.67 Q321.97,384.78 320.64,385.55 L318.87,386.57 L317.70,384.56 L318.66,384.00 Q319.44,383.55 319.65,383.10 Q319.87,382.64 319.69,381.88 L319.63,381.57 L309.58,374.06 Z M323.68,370.32 L329.07,367.21 L330.51,369.71 L325.13,372.82 L323.68,370.32 Z M341.43,360.68 L344.81,366.54 L341.72,368.32 L341.17,367.37 L339.14,363.86 Q338.41,362.60 338.09,362.16 Q337.76,361.71 337.49,361.57 Q337.14,361.37 336.73,361.39 Q336.33,361.40 335.93,361.62 Q334.97,362.18 334.85,363.24 Q334.73,364.30 335.49,365.61 L338.22,370.34 L335.15,372.11 L327.44,358.76 L330.51,356.99 L333.48,362.14 Q333.69,360.89 334.24,360.04 Q334.79,359.19 335.74,358.65 Q337.40,357.69 338.85,358.21 Q340.30,358.73 341.43,360.68 Z M349.46,352.91 L346.49,347.76 L349.58,345.97 L357.29,359.33 L354.20,361.11 L353.40,359.72 Q353.25,360.94 352.72,361.78 Q352.18,362.61 351.18,363.19 Q349.40,364.22 347.44,363.47 Q345.49,362.71 344.20,360.49 Q342.92,358.27 343.25,356.20 Q343.57,354.12 345.35,353.10 Q346.34,352.52 347.34,352.48 Q348.34,352.43 349.46,352.91 Z M351.03,360.30 Q352.02,359.73 352.12,358.71 Q352.22,357.69 351.43,356.32 Q350.64,354.94 349.70,354.52 Q348.77,354.10 347.78,354.67 Q346.80,355.24 346.70,356.26 Q346.59,357.28 347.39,358.65 Q348.18,360.02 349.12,360.45 Q350.05,360.87 351.03,360.30 Z M351.89,345.36 L355.06,343.53 L362.65,351.57 L359.47,340.98 L362.65,339.15 L370.23,347.19 L367.07,336.60 L370.21,334.79 L374.58,349.35 L370.77,351.55 L362.82,343.15 L366.15,354.22 L362.34,356.42 L351.89,345.36 Z M390.74,338.75 Q389.85,340.06 388.69,341.13 Q387.54,342.20 386.12,343.02 Q382.92,344.87 380.01,344.16 Q377.11,343.45 375.34,340.38 Q373.55,337.29 374.43,334.41 Q375.31,331.53 378.62,329.62 Q379.90,328.88 381.21,328.45 Q382.52,328.01 383.83,327.88 L385.36,330.53 Q383.94,330.54 382.71,330.86 Q381.47,331.17 380.41,331.78 Q378.44,332.92 378.00,334.64 Q377.57,336.36 378.76,338.41 Q379.93,340.44 381.60,340.96 Q383.27,341.47 385.16,340.38 Q385.68,340.08 386.09,339.76 Q386.49,339.44 386.76,339.10 L385.33,336.61 L383.31,337.78 L382.03,335.56 L387.18,332.59 L390.74,338.75 Z M403.95,331.45 Q403.32,332.45 402.47,333.26 Q401.62,334.07 400.55,334.69 Q397.34,336.54 394.44,335.83 Q391.54,335.12 389.77,332.05 Q387.99,328.98 388.83,326.11 Q389.67,323.24 392.87,321.39 Q393.94,320.77 395.07,320.45 Q396.19,320.11 397.38,320.06 L398.91,322.71 Q397.63,322.62 396.57,322.84 Q395.51,323.06 394.52,323.63 Q392.75,324.66 392.39,326.37 Q392.04,328.09 393.18,330.08 Q394.33,332.06 396.00,332.61 Q397.66,333.16 399.43,332.14 Q400.42,331.57 401.14,330.76 Q401.86,329.96 402.42,328.80 L403.95,331.45 Z M399.70,317.76 L403.39,315.63 L413.12,321.73 L408.05,312.94 L411.18,311.13 L418.58,323.94 L414.89,326.07 L405.16,319.98 L410.23,328.77 L407.10,330.57 L399.70,317.76 Z M428.24,315.26 L423.07,318.24 L423.60,321.04 L420.28,322.96 L417.63,307.41 L421.57,305.13 L433.71,315.21 L430.39,317.12 L428.24,315.26 Z M422.52,315.38 L426.03,313.36 L421.34,309.27 L422.52,315.38 Z" fill="#FFFFFF"/>
</svg>
